<?xml version="1.0" encoding="utf-8"?>
<!-- Generator: Adobe Illustrator 18.0.0, SVG Export Plug-In . SVG Version: 6.00 Build 0)  -->
<!DOCTYPE svg PUBLIC "-//W3C//DTD SVG 1.1//EN" "http://www.w3.org/Graphics/SVG/1.1/DTD/svg11.dtd">
<svg version="1.1" id="Calque_1" xmlns="http://www.w3.org/2000/svg" xmlns:xlink="http://www.w3.org/1999/xlink" x="0px" y="0px"
	 viewBox="0 0 256 256" enable-background="new 0 0 256 256" xml:space="preserve">
<rect x="0" fill="#074558" width="256" height="256"/>
<g>
	<path fill="#24BCEF" d="M34,66.2c0,1.9-1.5,3.5-3.8,3.5c-2.2,0-3.7-1.6-3.7-3.5c0-2,1.4-3.6,3.7-3.6C32.5,62.6,34,64.1,34,66.2z
		 M26.7,95.1V72.5h7v22.6H26.7z"/>
	<path fill="#24BCEF" d="M45.7,69.8h-8.4v-5.9h24v5.9h-8.5v25.3h-7.1V69.8z"/>
	<path fill="#24BCEF" d="M64.2,62.2h7v12.9h0.1c0.7-1,1.7-1.7,2.8-2.3c1-0.6,2.4-0.9,3.7-0.9c4.5,0,7.9,3.1,7.9,9.9v13.2h-7V82.6
		c0-3-1-5-3.7-5c-1.9,0-3,1.2-3.5,2.5c-0.2,0.5-0.2,1.1-0.2,1.6v13.4h-7V62.2z"/>
	<path fill="#24BCEF" d="M113.7,83.5c0,8.3-5.9,12.1-11.9,12.1c-6.6,0-11.7-4.4-11.7-11.7c0-7.3,4.8-12,12.1-12
		C109.1,71.9,113.7,76.7,113.7,83.5z M97.3,83.7c0,3.9,1.6,6.8,4.6,6.8c2.7,0,4.5-2.7,4.5-6.8c0-3.4-1.3-6.8-4.5-6.8
		C98.6,76.9,97.3,80.4,97.3,83.7z"/>
	<path fill="#24BCEF" d="M139.4,87.8c0,3,0.1,5.4,0.2,7.3h-6.1l-0.3-3.2H133c-0.9,1.4-3,3.7-7.1,3.7c-4.6,0-8-2.9-8-9.9V72.5h7.1
		v12.2c0,3.3,1.1,5.3,3.5,5.3c1.9,0,3.1-1.3,3.5-2.5c0.2-0.4,0.2-1,0.2-1.5V72.5h7.1V87.8z"/>
	<path fill="#24BCEF" d="M166.7,72.5c-0.1,1.4-0.2,3.3-0.2,6.7v12.6c0,4.4-0.9,7.9-3.4,10.2c-2.5,2.1-5.9,2.8-9.2,2.8
		c-3,0-6.1-0.6-8.1-1.8l1.4-5.3c1.4,0.8,3.9,1.7,6.6,1.7c3.3,0,5.9-1.8,5.9-6v-1.5h-0.1c-1.3,1.9-3.5,3-6.1,3
		c-5.6,0-9.6-4.5-9.6-11.1c0-7.3,4.7-11.9,10.3-11.9c3.1,0,5,1.3,6.2,3.2h0.1l0.2-2.7H166.7z M159.5,81.7c0-0.5,0-0.9-0.1-1.3
		c-0.5-1.9-1.9-3.1-3.8-3.1c-2.5,0-4.6,2.3-4.6,6.4c0,3.4,1.7,6,4.6,6c1.8,0,3.2-1.2,3.7-2.9c0.2-0.5,0.2-1.2,0.2-1.9V81.7z"/>
	<path fill="#24BCEF" d="M172.2,62.2h7v12.9h0.1c0.7-1,1.7-1.7,2.8-2.3c1-0.6,2.4-0.9,3.7-0.9c4.5,0,7.9,3.1,7.9,9.9v13.2h-7V82.6
		c0-3-1-5-3.7-5c-1.9,0-3,1.2-3.5,2.5c-0.2,0.5-0.2,1.1-0.2,1.6v13.4h-7V62.2z"/>
	<path fill="#24BCEF" d="M206.9,66v6.5h5v5.2h-5v8.2c0,2.7,0.6,4,2.8,4c0.9,0,1.6-0.1,2.1-0.2l0,5.3c-0.9,0.4-2.6,0.6-4.6,0.6
		c-2.3,0-4.2-0.8-5.3-1.9c-1.3-1.3-1.9-3.5-1.9-6.7v-9.3h-3v-5.2h3v-4.9L206.9,66z"/>
	<path fill="#24BCEF" d="M215.9,88.9c1.3,0.8,4,1.7,6.1,1.7c2.1,0,3-0.7,3-1.9c0-1.2-0.7-1.7-3.3-2.6c-4.7-1.6-6.5-4.1-6.4-6.8
		c0-4.2,3.6-7.4,9.2-7.4c2.6,0,5,0.6,6.4,1.3l-1.3,4.9c-1-0.6-3-1.3-4.9-1.3c-1.7,0-2.7,0.7-2.7,1.9c0,1.1,0.9,1.6,3.7,2.6
		c4.3,1.5,6.1,3.7,6.2,7c0,4.2-3.3,7.3-9.8,7.3c-3,0-5.6-0.6-7.3-1.6L215.9,88.9z"/>
	<circle fill="#FFD939" cx="30.3" cy="66" r="4.2"/>
</g>
<g>
	<path fill="#FFD939" d="M87.3,164.4l-3.1,11.1H74.1l13.3-43.4h12.9l13.5,43.4h-10.6l-3.3-11.1H87.3z M98.4,157l-2.7-9.2
		c-0.8-2.6-1.5-5.8-2.2-8.4h-0.1c-0.6,2.6-1.3,5.9-2,8.4l-2.6,9.2H98.4z"/>
	<path fill="#FFD939" d="M149.7,174.3c-1.8,0.9-5.9,1.9-11.1,1.9c-15,0-22.7-9.3-22.7-21.7c0-14.8,10.6-23,23.7-23
		c5.1,0,8.9,1,10.7,1.9l-2,7.8c-2-0.8-4.8-1.6-8.2-1.6c-7.8,0-13.8,4.7-13.8,14.4c0,8.7,5.2,14.2,13.9,14.2c3,0,6.2-0.6,8.2-1.4
		L149.7,174.3z"/>
	<path fill="#FFD939" d="M182,157.1h-16v10.3h17.8v8h-27.7v-43.4h26.8v8H166v9h16V157.1z"/>
</g>
</svg>
